# xmcd
#
# Track frame offsets: 
#        150
#        17840
#        51414
#        70863
#        89824
#        109270
#        129164
#        153785
#        208894
#        231851
#        252640
#        308798
#
# Disc length: 4364 seconds
#
# Revision: 0
# Processed by: cddbd v1.4PL0 Copyright (c) Steve Scherf et al.
# Submitted via: ExactAudioCopy v0.95a3
#
DISCID=ab110a0c
DTITLE=Mickey Newbury - Ramblin' Blues
DYEAR=1996
DGENRE=Country
TTITLE0=Three Bells For Stephen
TTITLE1=Ramblin' Blues/Working Man
TTITLE2=Just Dropped In
TTITLE3=Sweet Memories
TTITLE4=Heaven Help The Child
TTITLE5=Cortelia Clark
TTITLE6=Why You Been Gone So Long
TTITLE7=Sailor Sailor-My Father Was A Sailor-Willow Tree
TTITLE8=Some Memories
TTITLE9=Why You Been Gone So Long
TTITLE10=All My Trials/An American Trilogy
TTITLE11=Three Bells For Stephen
EXTD=
EXTT0=
EXTT1=
EXTT2=
EXTT3=
EXTT4=
EXTT5=
EXTT6=
EXTT7=
EXTT8=
EXTT9=
EXTT10=
EXTT11=
PLAYORDER=
